<?xml version="1.0" encoding="UTF-8"?>
<svg width="112px" height="24px" viewBox="0 0 112 24" version="1.1" xmlns="http://www.w3.org/2000/svg" xmlns:xlink="http://www.w3.org/1999/xlink">
    <!-- Generator: Sketch 50.2 (55047) - http://www.bohemiancoding.com/sketch -->
    <title>Logo / Empire Small</title>
    <desc>Created with Sketch.</desc>
    <defs></defs>
    <g id="Logo-/-Empire-Small" stroke="none" stroke-width="1" fill="none" fill-rule="evenodd">
        <path d="M2.74939937,14.9029754 L2.74939937,9.4385511 C2.74939937,4.59508409 2.74939937,3.72574386 2.68619479,2.73221216 C2.62299021,1.67658473 2.37017187,1.17981889 1.32729625,0.962483829 C1.07447792,0.900388098 0.537238958,0.869340233 0.252818333,0.869340233 C0.126409167,0.869340233 0,0.807244502 0,0.68305304 C0,0.496765847 0.158011458,0.434670116 0.505636666,0.434670116 C1.23248937,0.434670116 2.08575125,0.434670116 2.78100166,0.465717982 L4.07669562,0.527813713 C4.29791166,0.527813713 10.5867677,0.527813713 11.3136204,0.496765847 C11.9140639,0.465717982 12.4197006,0.403622251 12.6725189,0.34152652 C12.8305304,0.310478655 12.9569396,0.186287193 13.114951,0.186287193 C13.2097579,0.186287193 13.2413602,0.310478655 13.2413602,0.465717982 C13.2413602,0.68305304 13.0833487,1.05562743 12.9885419,1.92496766 C12.9569396,2.23544631 12.893735,3.60155239 12.8305304,3.97412678 C12.7989281,4.12936611 12.7357235,4.3156533 12.6093144,4.3156533 C12.4197006,4.3156533 12.356496,4.16041397 12.356496,3.91203105 C12.356496,3.69469599 12.3248937,3.16688228 12.1668823,2.79430789 C11.9456662,2.29754204 11.6296433,1.92496766 9.92311957,1.73868047 C9.38588061,1.67658473 5.94123083,1.64553687 5.59360562,1.64553687 C5.46719645,1.64553687 5.40399187,1.73868047 5.40399187,1.95601552 L5.40399187,10.5252264 C5.40399187,10.7425614 5.43559416,10.835705 5.59360562,10.835705 C6.00443541,10.835705 9.89151728,10.835705 10.61837,10.7736093 C11.376825,10.7115136 11.8192571,10.6494179 12.1036777,10.3389392 C12.3248937,10.0905563 12.4513029,9.93531695 12.5777121,9.93531695 C12.6725189,9.93531695 12.7357235,9.99741268 12.7357235,10.1836999 C12.7357235,10.3699871 12.5777121,10.8978008 12.4829052,11.9223803 C12.4197006,12.5433376 12.356496,13.6921087 12.356496,13.9094437 C12.356496,14.1578266 12.356496,14.4993532 12.13528,14.4993532 C11.9772685,14.4993532 11.9140639,14.3751617 11.9140639,14.2199224 C11.9140639,13.9094437 11.9140639,13.5989651 11.7876548,13.1953428 C11.6612456,12.7606727 11.376825,12.232859 10.1443356,12.1086675 C9.29107374,12.0155239 6.16244687,11.9534282 5.62520791,11.9534282 C5.46719645,11.9534282 5.40399187,12.0465718 5.40399187,12.1707633 L5.40399187,14.9029754 C5.40399187,15.9586028 5.37238958,19.5601552 5.40399187,20.2121604 C5.49879874,22.3544631 5.97283312,22.7580854 9.0698577,22.7580854 C9.89151728,22.7580854 11.2820181,22.7580854 12.1036777,22.4165589 C12.9253373,22.0750323 13.3045648,21.454075 13.5257808,20.1811125 C13.5889854,19.839586 13.65219,19.7153946 13.8102014,19.7153946 C13.9998152,19.7153946 13.9998152,19.9637775 13.9998152,20.1811125 C13.9998152,20.4294955 13.7469969,22.5407503 13.5889854,23.1927555 C13.3677694,24 13.114951,24 11.8824617,24 C9.51228978,24 7.77416374,23.9379043 6.54167437,23.9068564 C5.30918499,23.8447607 4.55072999,23.8137128 4.07669562,23.8137128 C4.01349104,23.8137128 3.47625208,23.8137128 2.81260395,23.8447607 C2.18055812,23.8447607 1.45370541,23.9068564 0.97967104,23.9068564 C0.632045833,23.9068564 0.474034374,23.8447607 0.474034374,23.6584735 C0.474034374,23.5653299 0.537238958,23.4721863 0.726852707,23.4721863 C1.01127333,23.4721863 1.39050083,23.4100906 1.67492146,23.3479948 C2.30696729,23.2238034 2.46497875,22.5407503 2.59138791,21.6403622 C2.74939937,20.3363519 2.74939937,17.8835705 2.74939937,14.9029754 Z M41.3681389,0.838292367 L43.4854925,19.9016818 C43.6119016,21.0194049 43.8331177,22.7580854 45.1920162,23.1927555 C46.1084827,23.4721863 46.9301423,23.4721863 47.2461652,23.4721863 C47.4041766,23.4721863 47.4989835,23.5032342 47.4989835,23.6274256 C47.4989835,23.8137128 47.2145629,23.9068564 46.8353354,23.9068564 C46.140085,23.9068564 42.7270375,23.8137128 41.5577527,23.7205692 C40.8309,23.6584735 40.6728885,23.5653299 40.6728885,23.4100906 C40.6728885,23.2858991 40.7360931,23.2238034 40.8941046,23.1927555 C41.052116,23.1617076 41.0837183,22.6338939 41.0205137,22.0750323 L39.5036037,6.05433376 L39.4087969,6.05433376 L31.6662354,22.1992238 C31.0025873,23.5653299 30.9077804,23.8447607 30.6233598,23.8447607 C30.4021437,23.8447607 30.2441323,23.534282 29.6436887,22.4165589 C28.8220292,20.8952135 26.1042321,15.5239327 25.9462206,15.2134541 C25.6618,14.6545925 22.1223433,7.20310479 21.7747181,6.36481242 L21.648309,6.36481242 L20.3842173,20.771022 C20.352615,21.2677878 20.352615,21.8266494 20.352615,22.3544631 C20.352615,22.8201811 20.7002402,23.2238034 21.1742746,23.316947 C21.7115135,23.4411384 22.1855479,23.4721863 22.3751617,23.4721863 C22.5015708,23.4721863 22.62798,23.534282 22.62798,23.6274256 C22.62798,23.8447607 22.4383662,23.9068564 22.0591387,23.9068564 C20.889854,23.9068564 19.372944,23.8137128 19.1201256,23.8137128 C18.835705,23.8137128 17.318795,23.9068564 16.4655331,23.9068564 C16.1495102,23.9068564 15.9282942,23.8447607 15.9282942,23.6274256 C15.9282942,23.534282 16.0863056,23.4721863 16.2443171,23.4721863 C16.4971354,23.4721863 16.7183515,23.4721863 17.1923858,23.3790427 C18.2352615,23.1927555 18.3300683,21.9818887 18.4564775,20.8020699 L20.7318425,0.558861578 C20.7634448,0.217335058 20.889854,0 21.0794677,0 C21.2690815,0 21.3954906,0.124191462 21.5535021,0.465717982 L31.2238033,19.9948254 L40.5148771,0.496765847 C40.6412862,0.217335058 40.7676954,0 40.9889114,0 C41.2101275,0 41.3049344,0.248382924 41.3681389,0.838292367 Z M50.1023839,14.9029754 L50.1023839,9.4385511 C50.1023839,4.59508409 50.1023839,3.72574386 50.0391794,2.73221216 C49.9759748,1.67658473 49.7231564,1.17981889 48.6802808,0.962483829 C48.4274625,0.900388098 47.8902235,0.869340233 47.6058029,0.869340233 C47.4793937,0.869340233 47.3529846,0.807244502 47.3529846,0.68305304 C47.3529846,0.496765847 47.510996,0.434670116 47.8586212,0.434670116 C49.2807244,0.434670116 51.1768619,0.527813713 51.4296802,0.527813713 C52.1249306,0.527813713 53.9578635,0.434670116 55.4115689,0.434670116 C59.3618554,0.434670116 60.7839585,1.73868047 61.2895952,2.20439845 C61.9848456,2.85640362 62.8697098,4.25355757 62.8697098,5.89909444 C62.8697098,10.3078913 59.5830714,13.2884864 55.095546,13.2884864 C54.9375346,13.2884864 54.5899094,13.2884864 54.4318979,13.2574386 C54.2738864,13.2574386 54.0842727,13.1953428 54.0842727,13.0401035 C54.0842727,12.7917206 54.2738864,12.7606727 54.9375346,12.7606727 C58.0029569,12.7606727 60.404731,10.5562743 60.404731,7.69987063 C60.404731,6.67529107 60.3099241,4.59508409 58.6350027,2.91849935 C56.9600812,1.24191462 55.0323414,1.36610608 54.3054887,1.36610608 C53.7682498,1.36610608 53.2310108,1.42820181 52.9465902,1.55239327 C52.7569764,1.614489 52.6937719,1.83182406 52.6937719,2.14230272 L52.6937719,14.9029754 C52.6937719,17.8835705 52.6937719,20.3363519 52.8517833,21.6403622 C52.9465902,22.5407503 53.1362039,23.2238034 54.0842727,23.3479948 C54.5267048,23.4100906 55.2219552,23.4721863 55.5063758,23.4721863 C55.6959896,23.4721863 55.7591942,23.5653299 55.7591942,23.6584735 C55.7591942,23.8137128 55.6011827,23.9068564 55.2535575,23.9068564 C53.5154314,23.9068564 51.5244871,23.8137128 51.3664756,23.8137128 C51.2716687,23.8137128 49.2807244,23.9068564 48.3326556,23.9068564 C47.9850304,23.9068564 47.827019,23.8447607 47.827019,23.6584735 C47.827019,23.5653299 47.8902235,23.4721863 48.0798373,23.4721863 C48.3642579,23.4721863 48.7434854,23.4100906 49.027906,23.3479948 C49.6599519,23.2238034 49.8179633,22.5407503 49.9443725,21.6403622 C50.1023839,20.3363519 50.1023839,17.8835705 50.1023839,14.9029754 Z M99.6041163,23.8745154 C99.4862649,23.8973215 99.3215918,23.9068564 99.0986877,23.9068564 L96.854925,23.9068564 C95.0851967,23.9068564 94.2951394,23.7516171 93.4734798,23.316947 C92.1145812,22.6028461 91.008501,21.0815006 89.2071704,18.7529107 C87.8798742,17.0452781 86.3945665,14.9650712 85.7625206,14.1578266 C85.6361115,14.0336352 85.5413046,13.9715395 85.3516908,13.9715395 L81.464609,13.9094437 C81.3065975,13.9094437 81.2433929,14.0025873 81.2433929,14.1578266 L81.2433929,14.9029754 C81.2433929,17.8835705 81.2433929,20.3363519 81.4014044,21.6403622 C81.4962113,22.5407503 81.685825,23.2238034 82.6338938,23.3479948 C83.0763258,23.4100906 83.7715763,23.4721863 84.0559969,23.4721863 C84.2456106,23.4721863 84.3088152,23.5653299 84.3088152,23.6584735 C84.3088152,23.8137128 84.1508038,23.9068564 83.8031785,23.9068564 C82.0650525,23.9068564 80.0741081,23.8137128 79.9160967,23.8137128 C79.8844944,23.8137128 77.89355,23.9068564 76.9454813,23.9068564 C76.5978561,23.9068564 76.4398446,23.8447607 76.4398446,23.6584735 C76.4398446,23.5653299 76.5030492,23.4721863 76.6926629,23.4721863 C76.9770836,23.4721863 77.3563111,23.4100906 77.6407317,23.3479948 C78.2727775,23.2238034 78.430789,22.5407503 78.5571981,21.6403622 C78.7152096,20.3363519 78.7152096,17.8835705 78.7152096,14.9029754 L78.7152096,9.4385511 C78.7152096,4.59508409 78.7152096,3.72574386 78.652005,2.73221216 C78.5888004,1.67658473 78.3359821,1.17981889 77.2931065,0.962483829 C77.0402881,0.900388098 76.5030492,0.869340233 76.2186286,0.869340233 C76.0922194,0.869340233 75.9658102,0.807244502 75.9658102,0.68305304 C75.9658102,0.496765847 76.1238217,0.434670116 76.4714469,0.434670116 C77.89355,0.434670116 79.8844944,0.527813713 80.0425058,0.527813713 C80.390131,0.527813713 82.7919052,0.434670116 83.7715763,0.434670116 C85.7625206,0.434670116 87.8798742,0.620957309 89.5547956,1.8007762 C90.3448529,2.35963777 91.7353537,3.88098318 91.7353537,6.0232859 C91.7353537,8.32082794 90.7556827,10.61837 87.9114765,13.1953428 C90.5028644,16.4553687 92.6518202,19.2186287 94.4847531,21.1435964 C96.1912769,22.9133247 97.5501754,23.2548512 98.3402327,23.3790427 C98.533592,23.4090375 98.7105653,23.4293731 98.8679864,23.4431601 C99.057807,23.4192608 99.252238,23.3836278 99.4154498,23.3479948 C100.047496,23.2238034 100.205507,22.5407503 100.331916,21.6403622 C100.489928,20.3363519 100.489928,17.8835705 100.489928,14.9029754 L100.489928,9.4385511 C100.489928,4.59508409 100.489928,3.72574386 100.426723,2.73221216 C100.363519,1.67658473 100.1107,1.17981889 99.0678246,0.962483829 C98.8150063,0.900388098 98.2777673,0.869340233 97.9933467,0.869340233 C97.8669375,0.869340233 97.7405283,0.807244502 97.7405283,0.68305304 C97.7405283,0.496765847 97.8985398,0.434670116 98.246165,0.434670116 C98.9730177,0.434670116 99.8262796,0.434670116 100.52153,0.465717982 L101.817224,0.527813713 C102.03844,0.527813713 108.327296,0.527813713 109.054149,0.496765847 C109.654592,0.465717982 110.160229,0.403622251 110.413047,0.34152652 C110.571059,0.310478655 110.697468,0.186287193 110.855479,0.186287193 C110.950286,0.186287193 110.981889,0.310478655 110.981889,0.465717982 C110.981889,0.68305304 110.823877,1.05562743 110.72907,1.92496766 C110.697468,2.23544631 110.634263,3.60155239 110.571059,3.97412678 C110.539456,4.12936611 110.476252,4.3156533 110.349843,4.3156533 C110.160229,4.3156533 110.097024,4.16041397 110.097024,3.91203105 C110.097024,3.69469599 110.065422,3.16688228 109.907411,2.79430789 C109.686195,2.29754204 109.370172,1.92496766 107.663648,1.73868047 C107.126409,1.67658473 103.681759,1.64553687 103.334134,1.64553687 C103.207725,1.64553687 103.14452,1.73868047 103.14452,1.95601552 L103.14452,10.5252264 C103.14452,10.7425614 103.176123,10.835705 103.334134,10.835705 C103.744964,10.835705 107.632046,10.835705 108.358898,10.7736093 C109.117353,10.7115136 109.559785,10.6494179 109.844206,10.3389392 C110.065422,10.0905563 110.191831,9.93531695 110.31824,9.93531695 C110.413047,9.93531695 110.476252,9.99741268 110.476252,10.1836999 C110.476252,10.3699871 110.31824,10.8978008 110.223434,11.9223803 C110.160229,12.5433376 110.097024,13.6921087 110.097024,13.9094437 C110.097024,14.1578266 110.097024,14.4993532 109.875808,14.4993532 C109.717797,14.4993532 109.654592,14.3751617 109.654592,14.2199224 C109.654592,13.9094437 109.654592,13.5989651 109.528183,13.1953428 C109.401774,12.7606727 109.117353,12.232859 107.884864,12.1086675 C107.031602,12.0155239 103.902975,11.9534282 103.365736,11.9534282 C103.207725,11.9534282 103.14452,12.0465718 103.14452,12.1707633 L103.14452,14.9029754 C103.14452,15.9586028 103.112918,19.5601552 103.14452,20.2121604 C103.239327,22.3544631 103.713361,22.7580854 106.810386,22.7580854 C107.632046,22.7580854 109.022546,22.7580854 109.844206,22.4165589 C110.665866,22.0750323 111.045093,21.454075 111.266309,20.1811125 C111.329514,19.839586 111.392718,19.7153946 111.55073,19.7153946 C111.740344,19.7153946 111.740344,19.9637775 111.740344,20.1811125 C111.740344,20.4294955 111.487525,22.5407503 111.329514,23.1927555 C111.108298,24 110.855479,24 109.62299,24 C107.252818,24 105.514692,23.9379043 104.282203,23.9068564 C103.049713,23.8447607 102.291258,23.8137128 101.817224,23.8137128 C101.754019,23.8137128 101.21678,23.8137128 100.553132,23.8447607 C100.245886,23.8447607 99.9162369,23.8594343 99.6041163,23.8745154 Z M70.5182035,9.4385511 L70.5182035,14.9029754 C70.5182035,17.8835705 70.5182035,20.3363519 70.676215,21.6403622 C70.7710219,22.5407503 70.9606356,23.2238034 71.9087044,23.3479948 C72.3511364,23.4100906 73.0463869,23.4721863 73.3308075,23.4721863 C73.5204212,23.4721863 73.5836258,23.5653299 73.5836258,23.6584735 C73.5836258,23.8137128 73.4256144,23.9068564 73.0779892,23.9068564 C71.3398631,23.9068564 69.3489187,23.8137128 69.1909073,23.8137128 C69.0328958,23.8137128 67.0419515,23.9068564 66.0938827,23.9068564 C65.7462575,23.9068564 65.588246,23.8447607 65.588246,23.6584735 C65.588246,23.5653299 65.6514506,23.4721863 65.8410644,23.4721863 C66.125485,23.4721863 66.5047125,23.4100906 66.7891331,23.3479948 C67.421179,23.2238034 67.5791904,22.5407503 67.7055996,21.6403622 C67.863611,20.3363519 67.863611,17.8835705 67.863611,14.9029754 L67.863611,9.4385511 C67.863611,4.59508409 67.863611,3.72574386 67.8004065,2.73221216 C67.7372019,1.67658473 67.421179,1.14877102 66.7259285,0.993531695 C66.3783033,0.900388098 65.9674735,0.869340233 65.7462575,0.869340233 C65.6198483,0.869340233 65.4934392,0.807244502 65.4934392,0.68305304 C65.4934392,0.496765847 65.6514506,0.434670116 65.9990758,0.434670116 C67.0419515,0.434670116 69.0328958,0.527813713 69.1909073,0.527813713 C69.3489187,0.527813713 71.3398631,0.434670116 72.2879319,0.434670116 C72.6355571,0.434670116 72.7935685,0.496765847 72.7935685,0.68305304 C72.7935685,0.807244502 72.6671594,0.869340233 72.5407502,0.869340233 C72.3195342,0.869340233 72.1299204,0.900388098 71.7506929,0.962483829 C70.897431,1.11772316 70.6446127,1.64553687 70.5814081,2.73221216 C70.5182035,3.72574386 70.5182035,4.59508409 70.5182035,9.4385511 Z M81.2433929,1.98706339 L81.2433929,12.1397154 C81.2433929,12.2949547 81.3065975,12.4191462 81.464609,12.5122898 C81.9386433,12.7917206 83.3923488,13.0090556 84.7828496,13.0090556 C85.5413046,13.0090556 86.4261687,12.915912 87.1530215,12.4191462 C88.2591017,11.6739974 89.0807612,9.99741268 89.0807612,7.6377749 C89.0807612,3.75679172 86.99501,1.42820181 83.6135648,1.42820181 C82.665496,1.42820181 81.8122342,1.52134541 81.4962113,1.614489 C81.3381998,1.67658473 81.2433929,1.8007762 81.2433929,1.98706339 Z" id="Empire" fill="#231F20"></path>
    </g>
</svg>