<?xml version="1.0" encoding="UTF-8"?>
<svg width="12px" height="16px" viewBox="0 0 12 16" version="1.1" xmlns="http://www.w3.org/2000/svg" xmlns:xlink="http://www.w3.org/1999/xlink">
    <!-- Generator: Sketch 50.2 (55047) - http://www.bohemiancoding.com/sketch -->
    <title>lock-close-fill</title>
    <desc>Created with Sketch.</desc>
    <defs>
        <path d="M11.6562709,6.0000076 L10.0000174,6.0000076 L10.0000174,4.00000507 C10.0000174,2.89583833 9.6093917,1.95312781 8.82813811,1.17187882 C8.04688879,0.390629828 7.10417786,0 6.00001067,0 C4.89584347,0 3.95313254,0.390625561 3.17188322,1.17187882 C2.3906339,1.95312781 2.00000391,2.89583833 2.00000391,4.00000507 L2.00000391,6.0000076 L0.343750447,6.0000076 C0.11458366,6.0000076 0,6.11459121 0,6.3437579 L0,15.6562497 C0,15.8854164 0.11458366,16 0.343750447,16 L11.6562496,16 C11.8854163,16 12,15.8854164 12,15.6562497 L12,6.3437579 C12,6.11459121 11.8854163,6.0000076 11.6562496,6.0000076 L11.6562709,6.0000076 Z M2.65625569,4.00000507 C2.65625569,3.08333724 2.98438104,2.29687758 3.64063068,1.64062608 C4.29688246,0.98437458 5.08334245,0.656251498 6.00001067,0.656251498 C6.91667888,0.656251498 7.70313888,0.984376714 8.35939065,1.64062608 C9.01564243,2.29687758 9.34376565,3.08333724 9.34376565,4.00000507 L9.34376565,6.0000076 L2.65623435,6.0000076 L2.65625569,4.00000507 Z M6.34376058,10.56252 L6.34376058,12.3437703 C6.34376058,12.5521039 6.22917745,12.656271 6.00001013,12.656271 C5.77084281,12.656271 5.65625969,12.5521039 5.65625969,12.3437703 L5.65625969,10.56252 C5.447926,10.458353 5.34375889,10.2708525 5.34375889,10.000018 C5.34375889,9.81251803 5.40625926,9.6562677 5.53125948,9.53126754 C5.65625969,9.40626738 5.81251008,9.34376704 6.00001013,9.34376704 C6.18751018,9.34376704 6.34376058,9.40626738 6.46876079,9.53126754 C6.593761,9.6562677 6.65626138,9.81251803 6.65626138,10.000018 C6.65626138,10.2708514 6.55209427,10.4583519 6.34376058,10.56252 Z" id="path-1"></path>
    </defs>
    <g id="Symbols" stroke="none" stroke-width="1" fill="none" fill-rule="evenodd">
        <g id="Button-/-Primary-Column-Width-/-Base" transform="translate(-255.000000, -12.000000)">
            <g id="Button---Full-Width">
                <g id="Icon-Text" transform="translate(255.000000, 12.000000)">
                    <mask id="mask-2" fill="white">
                        <use xlink:href="#path-1"></use>
                    </mask>
                    <use id="lock-close-fill" fill="#FFFFFF" fill-rule="nonzero" xlink:href="#path-1"></use>
                </g>
            </g>
        </g>
    </g>
</svg>